<?xml version="1.0" standalone="no"?><svg xmlns:xlink="http://www.w3.org/1999/xlink" xmlns="http://www.w3.org/2000/svg" viewBox="0 0 80 120.00188634755955" preserveAspectRatio="xMaxYMax slice"><g transform="scale(0.24145248762084415)"><rect x="0" y="0" width="331.3333333333333" height="497" fill="#ffffff"/><rect x="0" y="0" width="165.67" height="165.67" fill="#3a5356"/><g transform="translate(0,0) scale(8.2835) rotate(0)"><path fill-rule="evenodd" clip-rule="evenodd" d="M10 20C15.5228 20 20 15.5228 20 10C20 4.47715 15.5228 0 10 0C4.47715 0 0 4.47715 0 10C0 15.5228 4.47715 20 10 20ZM10 17C13.866 17 17 13.866 17 10C17 6.13401 13.866 3 10 3C6.13401 3 3 6.13401 3 10C3 13.866 6.13401 17 10 17Z" fill="#9daaab"/></g><rect x="165.66666666666666" y="0" width="165.66666666666666" height="165.66666666666666" fill="#ffffff"/><rect x="165.67" y="0" width="82.83" height="82.83" fill="#c4cbcc"/><path d="M 165.67 82.83 A 82.83 82.83 0 0 1  248.5 0 L 165.67 82.83 A 82.83 82.83 0 0 0 248.5 0" fill="#3c5558"/><rect x="248.5" y="0" width="82.83" height="82.83" fill="#dee5e3"/><g transform="translate(248.5,0) scale(4.1415) rotate(0)"><rect width="20" height="10" fill="#b1c3be"/></g><rect x="165.67" y="82.83" width="82.83" height="82.83" fill="#95a3a4"/><g transform="translate(165.67,82.83) scale(4.1415) rotate(0)"><path d="M10 0H20L0 20V10L10 0Z" fill="#a3afb1"/><path d="M20 10V20H10L20 10Z" fill="#a3afb1"/></g><rect x="248.5" y="82.83" width="82.83" height="82.83" fill="#dae2e0"/><g transform="translate(248.5,82.83) scale(4.1415) rotate(0)"><rect width="20" height="2" fill="#678980"/><rect y="4" width="20" height="2" fill="#678980"/><rect y="8" width="20" height="2" fill="#678980"/><rect y="12" width="20" height="2" fill="#678980"/><rect y="16" width="20" height="2" fill="#678980"/></g><rect x="0" y="165.66666666666666" width="165.66666666666666" height="165.66666666666666" fill="#ffffff"/><rect x="0" y="165.67" width="82.83" height="82.83" fill="#e7eceb"/><rect x="0" y="165.67" width="82.83" height="82.83" fill="#92aba4"/><rect x="82.83" y="165.67" width="82.83" height="82.83" fill="#919fa1"/><rect x="82.83" y="165.67" width="82.83" height="82.83" fill="#354f52"/><rect x="0" y="248.5" width="82.83" height="82.83" fill="#6e8183"/><g transform="translate(0,248.5) scale(4.1415) rotate(0)"><path d="M10 0H20L0 20V10L10 0Z" fill="#7c8d8f"/><path d="M20 10V20H10L20 10Z" fill="#7c8d8f"/></g><rect x="82.83" y="248.5" width="82.83" height="82.83" fill="#92a0a2"/><circle cx="124.245" cy="289.915" r="41.415" fill="#547b71"/><rect x="165.67" y="165.67" width="165.67" height="165.67" fill="#bbcac6"/><g transform="translate(165.67,165.67) scale(8.2835) rotate(0)"><path d="M5 0H10L5 5L0 10V5L5 0Z" fill="#697c7e"/><path d="M20 15V20H15L20 15Z" fill="#697c7e"/><path d="M20 5V10L15 15L10 20H5L20 5Z" fill="#697c7e"/><path d="M15 0H20L5 15.0002L0 20.0002V15.0002L15 0Z" fill="#697c7e"/></g><rect x="0" y="331.33" width="165.67" height="165.67" fill="#d5dedc"/><g transform="translate(0,331.33) scale(8.2835) rotate(0)"><path d="M10 5L5 0L0 5L5 10L0 15L5 20L10 15L15 20L20 15L15 10L20 5L15 0L10 5Z" fill="#486062"/></g><rect x="165.67" y="331.33" width="165.67" height="165.67" fill="#f4f5f5"/><g transform="translate(165.67,331.33) scale(8.2835) rotate(0)"><path d="M10 0H20L0 20V10L10 0Z" fill="#8da7a0"/><path d="M20 10V20H10L20 10Z" fill="#8da7a0"/></g></g></svg>
